<svg width="26" height="26" viewBox="0 0 26 26" fill="none" xmlns="http://www.w3.org/2000/svg">
<path d="M21.775 9.98835C19.8141 9.98835 19.0125 8.60168 19.9875 6.90085C20.5508 5.91501 20.215 4.65835 19.2291 4.09501L17.355 3.02251C16.4991 2.51335 15.3941 2.81668 14.885 3.67251L14.7658 3.87835C13.7908 5.57918 12.1875 5.57918 11.2016 3.87835L11.0825 3.67251C10.595 2.81668 9.48996 2.51335 8.63413 3.02251L6.75996 4.09501C5.77413 4.65835 5.43829 5.92585 6.00163 6.91168C6.98746 8.60168 6.18579 9.98835 4.22496 9.98835C3.09829 9.98835 2.16663 10.9092 2.16663 12.0467V13.9533C2.16663 15.08 3.08746 16.0117 4.22496 16.0117C6.18579 16.0117 6.98746 17.3983 6.00163 19.0992C5.43829 20.085 5.77413 21.3417 6.75996 21.905L8.63413 22.9775C9.48996 23.4867 10.595 23.1833 11.1041 22.3275L11.2233 22.1217C12.1983 20.4208 13.8016 20.4208 14.7875 22.1217L14.9066 22.3275C15.4158 23.1833 16.5208 23.4867 17.3766 22.9775L19.2508 21.905C20.2366 21.3417 20.5725 20.0742 20.0091 19.0992C19.0233 17.3983 19.825 16.0117 21.7858 16.0117C22.9125 16.0117 23.8441 15.0908 23.8441 13.9533V12.0467C23.8333 10.92 22.9125 9.98835 21.775 9.98835ZM13 16.5208C11.0608 16.5208 9.47913 14.9392 9.47913 13C9.47913 11.0608 11.0608 9.47918 13 9.47918C14.9391 9.47918 16.5208 11.0608 16.5208 13C16.5208 14.9392 14.9391 16.5208 13 16.5208Z" fill="white"/>
</svg>
