<svg width="26" height="26" viewBox="0 0 26 26" fill="none" xmlns="http://www.w3.org/2000/svg">
<path fill-rule="evenodd" clip-rule="evenodd" d="M5.60258 3.43583C4.33337 4.70503 4.33337 6.74779 4.33337 10.8333V15.1666C4.33337 19.2521 4.33337 21.2949 5.60258 22.5641C6.87178 23.8333 8.91454 23.8333 13 23.8333C17.0855 23.8333 19.1283 23.8333 20.3975 22.5641C21.6667 21.2949 21.6667 19.2521 21.6667 15.1666V10.8333C21.6667 6.74779 21.6667 4.70503 20.3975 3.43583C19.1283 2.16663 17.0855 2.16663 13 2.16663C8.91454 2.16663 6.87178 2.16663 5.60258 3.43583ZM9.75004 4.60413C9.30131 4.60413 8.93754 4.96789 8.93754 5.41663C8.93754 5.86536 9.30131 6.22913 9.75004 6.22913H16.25C16.6988 6.22913 17.0625 5.86536 17.0625 5.41663C17.0625 4.96789 16.6988 4.60413 16.25 4.60413H9.75004ZM13 20.5833C14.1967 20.5833 15.1667 19.6132 15.1667 18.4166C15.1667 17.22 14.1967 16.25 13 16.25C11.8034 16.25 10.8334 17.22 10.8334 18.4166C10.8334 19.6132 11.8034 20.5833 13 20.5833Z" fill="white"/>
</svg>
